<svg xmlns="http://www.w3.org/2000/svg" viewBox="0 0 352.02 688.67"><defs><style>.cls-1{isolation:isolate;}.cls-2{fill:#f5a674;}.cls-3{fill:#d9d9d9;}.cls-11,.cls-3,.cls-7{mix-blend-mode:multiply;}.cls-4{fill:#f7ba93;}.cls-5{fill:#02ccc0;}.cls-6{fill:#fff;}.cls-7{fill:#c6c6c5;}.cls-8{fill:#30302f;}.cls-9{fill:#422918;}.cls-10{fill:#d37f50;}.cls-11{fill:#ececec;}.cls-12{fill:#d61d20;}.cls-13{fill:#1691d1;}</style></defs><g class="cls-1"><g id="Layer_2" data-name="Layer 2"><g id="Layer_1-2" data-name="Layer 1"><rect class="cls-2" x="154.16" y="292.69" width="49.29" height="29.32"/><path class="cls-3" d="M172.24,318.08c10.33-3.29,19-9.76,20.3-21.12a10.1,10.1,0,0,0-.42-4.27h11.33V322H154.16v-3.68A33.21,33.21,0,0,0,172.24,318.08Z"/><path class="cls-4" d="M64.78,354c29.87-10.74,88-33.16,88-33.16h49.65s58.16,22.42,88,33.16c27.8,10,34,37.05,34,70.68H30.74C30.74,391,37,363.94,64.78,354Z"/><path class="cls-5" d="M64.78,354c29.87-10.74,88-33.16,88-33.16h49.65s58.16,22.42,88,33.16c27.8,10,34,37.05,34,70.68H30.74C30.74,391,37,363.94,64.78,354Z"/><path class="cls-4" d="M84.85,424.63H272.77S268,480.55,259.15,527.71c0,0,2.6,52.11,8.28,103.07H90.19c5.67-51,8.27-103.07,8.27-103.07C89.57,480.55,84.85,424.63,84.85,424.63Z"/><path class="cls-6" d="M84.85,424.63H272.77S268,480.55,259.15,527.71c0,0,2.6,52.11,8.28,103.07H90.19c5.67-51,8.27-103.07,8.27-103.07C89.57,480.55,84.85,424.63,84.85,424.63Z"/><path class="cls-2" d="M288.31,647.79l27.38-.33S327.57,671,306.2,687c0,0-9.4,3.93-9.74-.16,0,0,10.26-10.43,1.1-22,0,0-6.28,3.5-12.84,12.56,0,0-7.38,1.41-1.74-12.5C283.83,662.75,288.58,658.1,288.31,647.79Z"/><path class="cls-2" d="M320.14,409.93s16.48,136.42.39,239.78h-36.4c20.55-70.82-20.05-219-20.05-219-12-46.49,56.06-20.79,56.06-20.79"/><path class="cls-2" d="M67.48,637l-29.82-.44s-12.84,24.29,10.5,40.85c0,0,10.25,4.09,10.6-.13,0,0-11.22-10.82-1.29-22.75,0,0,6.85,3.65,14,13,0,0,8,1.48,1.86-12.91C72.42,652.51,67.22,647.69,67.48,637Z"/><path class="cls-2" d="M33,410.63s-16.48,130.59-.4,229.53H69C48.43,572.37,89,430.53,89,430.53,101,386,33,410.63,33,410.63"/><polygon class="cls-7" points="177.85 320.79 154.16 378.64 130.47 329.45 177.85 320.79"/><path class="cls-2" d="M156.19,100.81h27.55A51.21,51.21,0,0,1,235,152V266.95a33.72,33.72,0,0,1-33.72,33.72H138.7A33.72,33.72,0,0,1,105,266.95V152a51.21,51.21,0,0,1,51.21-51.21Z" transform="translate(-13.67 12.42) rotate(-4.02)"/><path class="cls-8" d="M162.09,170.09a10.19,10.19,0,1,1-13.93-3.66A10.19,10.19,0,0,1,162.09,170.09Z"/><path class="cls-6" d="M150.52,169.31c1.29.57,1.4,3.12.26,5.69s-3.12,4.19-4.4,3.62-1.41-3.13-.26-5.7S149.23,168.73,150.52,169.31Z"/><path class="cls-8" d="M184.2,171.23a10.19,10.19,0,1,0,6.64-12.79A10.18,10.18,0,0,0,184.2,171.23Z"/><path class="cls-9" d="M152.14,143.65a5.82,5.82,0,0,1,5.68,2.35s2.14,4-1.29,5.52c0,0-25.69,10.87-31.44,22.18C125.09,173.7,116,155.54,152.14,143.65Z"/><path class="cls-6" d="M199.81,169.84c-1.21.73-3.36-.65-4.81-3.06s-1.64-5-.43-5.68,3.36.65,4.81,3.06S201,169.12,199.81,169.84Z"/><path class="cls-9" d="M182.13,228.71a5.75,5.75,0,1,0-7.95-1.68A5.76,5.76,0,0,0,182.13,228.71Z"/><path class="cls-9" d="M175.34,241.24a17.61,17.61,0,0,0,13.33-2.5,3.36,3.36,0,1,0-3.68-5.63,11,11,0,0,1-15.21-3.21,3.41,3.41,0,0,0-2.13-1.45,3.36,3.36,0,0,0-3.5,5.13A17.63,17.63,0,0,0,175.34,241.24Z"/><path class="cls-9" d="M173.06,252.07A28.59,28.59,0,0,0,194.72,248a3.36,3.36,0,1,0-3.68-5.63A22.07,22.07,0,0,1,160.5,236a3.36,3.36,0,1,0-5.63,3.68A28.58,28.58,0,0,0,173.06,252.07Z"/><path class="cls-9" d="M145.58,245.69a39.88,39.88,0,0,0,55.2,11.61,3.36,3.36,0,0,0-1.15-6.1,3.33,3.33,0,0,0-2.53.47A33.15,33.15,0,0,1,151.21,242a3.36,3.36,0,1,0-5.63,3.68Z"/><polygon class="cls-9" points="136.84 2.61 144.16 91.16 136.18 91.82 128.59 0 136.84 2.61"/><polygon class="cls-9" points="154.12 23.53 159.85 92.83 151.88 93.49 145.91 21.3 154.12 23.53"/><polygon class="cls-9" points="172.75 40.58 177.04 92.4 169.06 93.06 164.58 38.83 172.75 40.58"/><polygon class="cls-9" points="190.87 51.29 194.39 93.96 186.42 94.62 182.71 49.77 190.87 51.29"/><rect class="cls-10" x="95.09" y="179.13" width="12" height="51.61" rx="6" transform="translate(22.27 -9.55) rotate(6.08)"/><rect class="cls-10" x="233.08" y="167.15" width="12" height="51.61" rx="6" transform="translate(-22.4 31.66) rotate(-7.24)"/><path class="cls-11" d="M132.23,106.79a69.74,69.74,0,0,1,19.43-4.56c-12.12,6.7-22.52,26.82-27.21,41.8-4.73,15.15-9.11,28.36-8,51.06,1.53,30.12,2.29,80.12,25,87.9,17.13,5.85,24.49,13.25,35.74,8.21-4.9,5.15-21.57,16.28-48.28,7.37,0,0-19.77-8.78-16.84-34.59C112.16,264,84.61,124.19,132.23,106.79Z"/><path class="cls-12" d="M65.23,575S71.15,376.12,81.4,353.1c18.83-42.31,47.69-27.3,47.69-27.3s67.14-26,122.14,9.41c2.18,1.41,44,47.7,37,323.58,0,0-167-40-223-12Z"/><path class="cls-13" d="M119.74,355.75a46.69,46.69,0,0,1-3.61,23.46c-9.87,23.41-35.74,94.13-38.19,116.46,0,0-45,5.31-77.94-18.75,4.55-28.6,15.71-65.69,35.09-94.94C69.39,330.22,115.43,318.63,119.74,355.75Z"/><path class="cls-13" d="M232.28,350.75a46.69,46.69,0,0,0,3.61,23.46c9.87,23.41,35.74,94.13,38.19,116.46,0,0,45,5.31,77.94-18.75-4.55-28.6-15.71-65.69-35.09-94.94C282.63,325.22,236.59,313.63,232.28,350.75Z"/></g></g></g></svg>